<svg width="36" height="36" viewBox="0 0 36 36" fill="none" xmlns="http://www.w3.org/2000/svg">
<path d="M30.6787 0.818359C31.3563 0.818599 31.9053 1.36824 31.9053 2.0459V24.1367C31.9052 24.6158 31.6265 25.0506 31.1914 25.251C30.756 25.4513 30.2428 25.3803 29.8789 25.0684L28.6133 23.9834C28.1537 23.5895 27.4752 23.5895 27.0156 23.9834L25.75 25.0684C25.2905 25.4621 24.6119 25.462 24.1523 25.0684L22.8867 23.9834C22.4271 23.5895 21.7477 23.5895 21.2881 23.9834L20.0225 25.0684C19.5629 25.4621 18.8843 25.4621 18.4248 25.0684L17.1592 23.9834C16.6996 23.5895 16.0211 23.5896 15.5615 23.9834L14.2959 25.0684C13.932 25.3803 13.4188 25.4513 12.9834 25.251C12.5482 25.0506 12.2696 24.6158 12.2695 24.1367V2.0459C12.2695 1.36821 12.8185 0.818551 13.4961 0.818359H30.6787Z" fill="url(#paint0_linear_11741_36002)"/>
<path d="M26.043 5.45508C26.8713 5.45522 27.543 6.12674 27.543 6.95508V33.9551C27.5429 34.5408 27.202 35.0736 26.6699 35.3184C26.1379 35.5629 25.5121 35.4746 25.0674 35.0938L23.5195 33.7666C22.9578 33.2853 22.1281 33.2853 21.5664 33.7666L20.0195 35.0938C19.4578 35.575 18.6281 35.5752 18.0664 35.0938L16.5195 33.7666C15.958 33.2854 15.1291 33.2856 14.5674 33.7666L13.0195 35.0938C12.4578 35.5751 11.6281 35.5752 11.0664 35.0938L9.51953 33.7666C8.95798 33.2854 8.12906 33.2856 7.56738 33.7666L6.01953 35.0938C5.57501 35.4747 4.94895 35.5626 4.41699 35.3184C3.88487 35.0736 3.54308 34.5408 3.54297 33.9551V6.95508C3.54297 6.12669 4.2146 5.45515 5.04297 5.45508H26.043Z" fill="url(#paint1_linear_11741_36002)"/>
<path d="M21.679 12.1362L9.40625 12.1362" stroke="white" stroke-width="2.29091" stroke-linecap="round" stroke-linejoin="round"/>
<path d="M21.679 18.1367L9.40625 18.1367" stroke="white" stroke-width="2.29091" stroke-linecap="round" stroke-linejoin="round"/>
<path d="M21.679 24.1362L12.4062 24.1362" stroke="white" stroke-width="2.29091" stroke-linecap="round" stroke-linejoin="round"/>
<defs>
<linearGradient id="paint0_linear_11741_36002" x1="22.0874" y1="0.818359" x2="22.0874" y2="25.3636" gradientUnits="userSpaceOnUse">
<stop stop-color="#7371E3"/>
<stop offset="1" stop-color="#AEB7F3"/>
</linearGradient>
<linearGradient id="paint1_linear_11741_36002" x1="15.543" y1="5.45508" x2="15.543" y2="35.4552" gradientUnits="userSpaceOnUse">
<stop stop-color="#AEB7F3"/>
<stop offset="1" stop-color="#E3E8FC"/>
</linearGradient>
</defs>
</svg>
